# File created by Blade
# Date/Time:  Tue Sep 30 19:29:03 2014
#---------------------------------------------------------
:version 1.10
:name HOM
:units
  mass 1.0
  length 1.000000
  angle deg
:documentation
     Acclaim Skeleton File
:root
   axis xyz
   order TX TY TZ RX RY RZ
   position 0.000000 0.000000 0.000000
   orientation 0 0 0
:bonedata
   begin
      id 1
      name RightUpLeg_dum
      direction -1.000000 0.000000 0.000000
      length 3.766986
      axis 0.0 0.0 0.0 xyz
   end
   begin
      id 2
      name LeftUpLeg_dum
      direction 1.000000 0.000000 0.000000
      length 3.766986
      axis 0.0 0.0 0.0 xyz
   end
   begin
      id 3
      name Spine_dum
      direction 0.000000 1.000000 0.000000
      length 7.779697
      axis 0.0 0.0 0.0 xyz
   end
   begin
      id 4
      name RightUpLeg
      direction 0.000000 -1.000000 0.000000
      length 18.017682
      axis 0.0 0.0 0.0 xyz
      dof rx ry rz
   end
   begin
      id 5
      name RightLeg
      direction 0.000000 -1.000000 0.000000
      length 16.881075
      axis 0.0 0.0 0.0 xyz
      dof rx ry rz
   end
   begin
      id 6
      name RightFoot
      direction 0.000000 -0.258819 0.965926
      length 5.770812
      axis 15.0 0.0 0.0 xyz
      dof rx ry rz
   end
   begin
      id 7
      name RightToeBase
      direction 0.000000 0.000000 1.000000
      length 2.952750
      axis 0.0 0.0 0.0 xyz
      dof rx ry rz
   end
   begin
      id 8
      name LeftUpLeg
      direction 0.000000 -1.000000 0.000000
      length 18.017682
      axis 0.0 0.0 0.0 xyz
      dof rx ry rz
   end
   begin
      id 9
      name LeftLeg
      direction 0.000000 -1.000000 0.000000
      length 16.881075
      axis 0.0 0.0 0.0 xyz
      dof rx ry rz
   end
   begin
      id 10
      name LeftFoot
      direction 0.000000 -0.258819 0.965926
      length 5.770812
      axis 15.0 0.0 0.0 xyz
      dof rx ry rz
   end
   begin
      id 11
      name LeftToeBase
      direction 0.000000 0.000000 1.000000
      length 2.952750
      axis 0.0 0.0 0.0 xyz
      dof rx ry rz
   end
   begin
      id 12
      name Spine
      direction 0.000000 1.000000 0.000000
      length 0.000000
      axis 0.0 0.0 0.0 xyz
      dof rx ry rz
   end
   begin
      id 13
      name Spine_dum1
      direction 0.000000 1.000000 0.000000
      length 10.941760
      axis 0.0 0.0 0.0 xyz
   end
   begin
      id 14
      name Spine_dum2
      direction 0.000000 1.000000 0.000000
      length 10.941760
      axis 0.0 0.0 0.0 xyz
   end
   begin
      id 15
      name Spine_dum3
      direction 0.000000 1.000000 0.000000
      length 16.646042
      axis 0.0 0.0 0.0 xyz
   end
   begin
      id 16
      name RightShoulder
      direction -1.000000 0.000000 0.000000
      length 7.708937
      axis 0.0 0.0 90.0 xyz
      dof rx ry rz
   end
   begin
      id 17
      name RightArm
      direction -1.000000 0.000000 0.000000
      length 11.521345
      axis 0.0 0.0 90.0 xyz
      dof rx ry rz
   end
   begin
      id 18
      name RightForeArm
      direction -1.000000 0.000000 0.000000
      length 10.175898
      axis 0.0 0.0 90.0 xyz
      dof ry rz rx
   end
   begin
      id 19
      name RightHand
      direction -1.000000 0.000000 0.000000
      length 0.000000
      axis 0.0 0.0 90.0 xyz
      dof rx ry rz
   end
   begin
      id 20
      name RightHand_dum1
      direction -1.000000 0.000000 0.000000
      length 3.937000
      axis 0.0 0.0 90.0 xyz
   end
   begin
      id 21
      name RightHand_dum2
      direction 0.000000 0.000000 0.000000
      length 0.000000
      axis 0.0 0.0 90.0 xyz
   end
   begin
      id 22
      name RightHandThumb1
      direction 0.000000 0.000000 1.000000
      length 3.937000
      axis 0.0 0.0 90.0 xyz
      dof rx rz ry
   end
   begin
      id 23
      name LeftShoulder
      direction 1.000000 0.000000 0.000000
      length 7.708937
      axis 0.0 0.0 -90.0 xyz
      dof rx ry rz
   end
   begin
      id 24
      name LeftArm
      direction 1.000000 0.000000 0.000000
      length 11.521345
      axis 0.0 0.0 -90.0 xyz
      dof rx ry rz
   end
   begin
      id 25
      name LeftForeArm
      direction 1.000000 0.000000 0.000000
      length 10.175898
      axis 0.0 0.0 -90.0 xyz
      dof ry rz rx
   end
   begin
      id 26
      name LeftHand
      direction 1.000000 0.000000 0.000000
      length 0.000000
      axis 0.0 0.0 -90.0 xyz
      dof rx ry rz
   end
   begin
      id 27
      name LeftHand_dum1
      direction 1.000000 0.000000 0.000000
      length 3.937000
      axis 0.0 0.0 -90.0 xyz
   end
   begin
      id 28
      name LeftHand_dum2
      direction 0.000000 0.000000 0.000000
      length 0.000000
      axis 0.0 0.0 -90.0 xyz
   end
   begin
      id 29
      name LeftHandThumb1
      direction 0.000000 0.000000 1.000000
      length 3.937000
      axis 0.0 0.0 -90.0 xyz
      dof rx rz ry
   end
   begin
      id 30
      name Head
      direction 0.000000 1.000000 0.000000
      length 4.527550
      axis 0.0 0.0 0.0 xyz
      dof rx ry rz
   end
:hierarchy
   begin
      root RightUpLeg_dum LeftUpLeg_dum Spine_dum
      RightUpLeg_dum RightUpLeg
      LeftUpLeg_dum LeftUpLeg
      Spine_dum Spine
      RightUpLeg RightLeg
      RightLeg RightFoot
      RightFoot RightToeBase
      LeftUpLeg LeftLeg
      LeftLeg LeftFoot
      LeftFoot LeftToeBase
      Spine Spine_dum1 Spine_dum2 Spine_dum3
      Spine_dum1 RightShoulder
      Spine_dum2 LeftShoulder
      Spine_dum3 Head
      RightShoulder RightArm
      RightArm RightForeArm
      RightForeArm RightHand
      RightHand RightHand_dum1 RightHand_dum2
      RightHand_dum2 RightHandThumb1
      LeftShoulder LeftArm
      LeftArm LeftForeArm
      LeftForeArm LeftHand
      LeftHand LeftHand_dum1 LeftHand_dum2
      LeftHand_dum2 LeftHandThumb1
   end

# File created by Blade
# Date/Time:  Mon Sep 22 16:09:39 2014
# Frame Rate: 120.000 fps
#------------------------------------------------------
:FULLY-SPECIFIED
:DEGREES
125
root 3.067628 37.014294 1.633085 -1.201001 -1.031203 1.919553
RightUpLeg 7.917829 -6.747340 -3.670040
RightLeg -4.294619 -0.000000 0.000000
RightFoot -13.319287 -17.064660 15.885265
RightToeBase 14.603585 -0.000000 -0.000000
LeftUpLeg 5.089429 -0.608458 0.889702
LeftLeg -1.130856 -0.000000 0.000000
LeftFoot -9.604978 12.746799 -16.171354
LeftToeBase 9.560127 -0.000000 -0.000000
Spine 2.336413 -1.128727 -1.913058
RightShoulder 6.219956 -27.929426 -4.642928
RightArm 27.077020 -7.168290 73.365179
RightForeArm 93.949501 -0.000000 75.118885
RightHand 11.547858 -0.000000 13.651366
RightHandThumb1 -24.326973 -0.000000 -32.862282
LeftShoulder -19.030202 38.380679 -3.692362
LeftArm 51.870527 27.177177 -52.086251
LeftForeArm 27.604712 -0.000000 34.218295
LeftHand -12.313052 0.000000 -12.981708
LeftHandThumb1 -26.253704 0.000000 33.147579
Head -1.289676 5.422851 3.765572
126
root 3.065067 37.013910 1.637098 -1.194592 -0.872795 1.932972
RightUpLeg 7.949843 -6.834660 -3.680221
RightLeg -4.302921 -0.000000 0.000000
RightFoot -13.367370 -17.103555 15.958822
RightToeBase 14.562910 -0.000000 -0.000000
LeftUpLeg 5.045524 -0.679230 0.883434
LeftLeg -1.084176 -0.000000 0.000000
LeftFoot -9.595263 12.667915 -16.148616
LeftToeBase 9.557362 -0.000000 -0.000000
Spine 2.332097 -1.232401 -1.902297
RightShoulder 6.195388 -27.958480 -4.707860
RightArm 26.978616 -7.099345 73.613872
RightForeArm 94.125280 -0.000000 75.253604
RightHand 11.547848 0.000000 13.663192
RightHandThumb1 -24.326973 -0.000000 -32.862282
LeftShoulder -19.057801 38.352792 -3.730369
LeftArm 51.816874 26.930153 -52.016624
LeftForeArm 27.380609 -0.000000 34.189132
LeftHand -12.410171 0.000000 -12.828967
LeftHandThumb1 -26.253704 0.000000 33.147579
Head -1.306164 5.460963 3.549124
127
root 3.057326 37.013995 1.636674 -1.166815 -0.705972 1.941433
RightUpLeg 7.953094 -6.930245 -3.672895
RightLeg -4.306652 -0.000000 0.000000
RightFoot -13.404607 -17.161669 15.953302
RightToeBase 14.588078 -0.000000 -0.000000
LeftUpLeg 4.962084 -0.761015 0.890265
LeftLeg -1.018404 -0.000000 0.000000
LeftFoot -9.586865 12.584793 -16.159438
LeftToeBase 9.572254 -0.000000 -0.000000
Spine 2.307816 -1.349223 -1.904455
RightShoulder 6.157971 -27.971139 -4.725810
RightArm 26.899506 -7.009580 73.898092
RightForeArm 94.219554 -0.000000 75.383484
RightHand 11.589045 -0.000000 13.680125
RightHandThumb1 -24.326973 -0.000000 -32.862282
LeftShoulder -19.034640 38.333575 -3.714831
LeftArm 51.727359 26.674644 -51.954379
LeftForeArm 27.434862 -0.000000 34.164946
LeftHand -12.663090 -0.000000 -12.334206
LeftHandThumb1 -26.253704 0.000000 33.147579
Head -1.306892 5.494015 3.351224
128
root 3.052069 37.013951 1.638131 -1.147622 -0.557132 1.951610
RightUpLeg 7.974869 -7.019749 -3.671948
RightLeg -4.332482 -0.000000 0.000000
RightFoot -13.411204 -17.229836 15.942840
RightToeBase 14.566894 -0.000000 -0.000000
LeftUpLeg 4.900395 -0.821139 0.889972
LeftLeg -0.968104 -0.000000 0.000000
LeftFoot -9.573166 12.522211 -16.131484
LeftToeBase 9.543389 -0.000000 -0.000000
Spine 2.285815 -1.459437 -1.897154
RightShoulder 6.121377 -27.993246 -4.742672
RightArm 26.839410 -6.852317 74.289090
RightForeArm 94.195710 -0.000000 75.519358
RightHand 11.667069 -0.000000 13.740138
RightHandThumb1 -24.326973 -0.000000 -32.862282
LeftShoulder -18.994585 38.315775 -3.688698
LeftArm 51.611787 26.404467 -51.947295
LeftForeArm 27.396568 -0.000000 34.135527
LeftHand -12.730687 -0.000000 -12.292872
LeftHandThumb1 -26.253704 0.000000 33.147579
Head -1.297165 5.544076 3.171997
129
root 3.046820 37.014139 1.640308 -1.129687 -0.412120 1.973164
RightUpLeg 7.998205 -7.123611 -3.684044
RightLeg -4.358544 -0.000000 0.000000
RightFoot -13.496572 -17.235939 16.063319
RightToeBase 14.682331 -0.000000 -0.000000
LeftUpLeg 4.854139 -0.897580 0.876040
LeftLeg -0.943182 -0.000000 0.000000
LeftFoot -9.543424 12.483650 -16.099649
LeftToeBase 9.564867 -0.000000 -0.000000
Spine 2.261812 -1.588026 -1.912039
RightShoulder 6.086883 -27.987077 -4.708904
RightArm 26.775231 -6.645347 74.727473
RightForeArm 94.230110 -0.000000 75.700194
RightHand 11.790809 -0.000000 13.732052
RightHandThumb1 -24.326973 -0.000000 -32.862282
LeftShoulder -18.964837 38.320126 -3.632396
LeftArm 51.534990 26.193535 -51.888090
LeftForeArm 27.042312 -0.000000 34.067477
LeftHand -12.897720 -0.000000 -11.777306
LeftHandThumb1 -26.253704 0.000000 33.147579
Head -1.273738 5.606373 3.031981
130
root 3.039684 37.013896 1.642659 -1.111751 -0.299610 1.987910
RightUpLeg 8.013802 -7.179315 -3.681717
RightLeg -4.379592 -0.000000 0.000000
RightFoot -13.461433 -17.331034 15.947227
RightToeBase 14.560134 -0.000000 -0.000000
LeftUpLeg 4.812224 -0.936302 0.874292
LeftLeg -0.919505 -0.000000 0.000000
LeftFoot -9.515782 12.424507 -16.085100
LeftToeBase 9.556449 -0.000000 -0.000000
Spine 2.233485 -1.688019 -1.911468
RightShoulder 6.075620 -27.974907 -4.716597
RightArm 26.724328 -6.252080 75.518800
RightForeArm 93.913908 -0.000000 75.792016
RightHand 11.674993 -0.000000 13.746616
RightHandThumb1 -24.326973 -0.000000 -32.862282
LeftShoulder -18.882653 38.284144 -3.555789
LeftArm 51.417322 25.995559 -51.791183
LeftForeArm 26.788093 -0.000000 33.981523
LeftHand -12.901368 -0.000000 -11.654111
LeftHandThumb1 -26.253704 0.000000 33.147579
Head -1.234223 5.655467 2.867669
131
root 3.031442 37.014226 1.644843 -1.091162 -0.205096 1.990930
RightUpLeg 8.016030 -7.211302 -3.668077
RightLeg -4.384158 -0.000000 0.000000
RightFoot -13.467297 -17.383763 15.940846
RightToeBase 14.492929 -0.000000 -0.000000
LeftUpLeg 4.782852 -0.981256 0.884917
LeftLeg -0.919119 -0.000000 0.000000
LeftFoot -9.493202 12.395213 -16.053340
LeftToeBase 9.533767 -0.000000 -0.000000
Spine 2.192422 -1.805987 -1.892059
RightShoulder 6.107235 -27.900527 -4.683147
RightArm 26.621465 -5.878413 76.185489
RightForeArm 93.898794 -0.000000 75.943354
RightHand 11.589323 -0.000000 13.912850
RightHandThumb1 -24.326973 -0.000000 -32.862282
LeftShoulder -18.839791 38.279696 -3.511004
LeftArm 51.302410 25.769898 -51.762894
LeftForeArm 26.487738 0.000000 33.862536
LeftHand -13.111917 -0.000000 -11.067131
LeftHandThumb1 -26.253704 0.000000 33.147579
Head -1.149644 5.760394 2.698933
